<svg width="170" height="170" viewBox="0 0 170 170" fill="none" xmlns="http://www.w3.org/2000/svg">
<path d="M85 14.1667C124.058 14.1667 155.833 45.9425 155.833 85C155.833 124.058 124.058 155.833 85 155.833C45.9425 155.833 14.1667 124.058 14.1667 85C14.1667 45.9425 45.9425 14.1667 85 14.1667ZM85 0C38.0588 0 0 38.0588 0 85C0 131.941 38.0588 170 85 170C131.941 170 170 131.941 170 85C170 38.0588 131.941 0 85 0ZM129.271 62.9779L119.205 52.9975L75.9617 97.0417L54.1592 76.2379L44.2708 86.4096L76.1458 117.003L129.271 62.9779Z" fill="#EB9244"/>
</svg>
