<svg width="540" height="544" viewBox="0 0 540 544" fill="none" xmlns="http://www.w3.org/2000/svg">
<ellipse cx="119.378" cy="296.383" rx="119.378" ry="51.7617" fill="#EB9244" fill-opacity="0.6"/>
<ellipse cx="276.995" cy="492.238" rx="119.378" ry="51.7617" fill="#EB9244" fill-opacity="0.6"/>
<ellipse cx="420.622" cy="273.067" rx="119.378" ry="51.7617" fill="#EB9244" fill-opacity="0.6"/>
<path d="M423.428 211.277C424.092 211.941 448.341 184.703 449.172 185.533C449.891 186.253 423.871 213.491 424.535 214.155C425.477 215.097 448.563 188.246 449.504 189.187C450.223 189.907 425.753 215.65 426.362 216.315C427.137 217.09 449.338 191.512 450.279 192.398C450.888 193.007 427.193 218.031 427.802 218.64C428.466 219.304 450.223 194.889 450.888 195.554C451.441 196.107 427.525 221.408 428.134 222.072C428.964 222.903 450.279 198.488 450.999 199.208C451.441 199.65 432.895 219.913 433.393 220.411C434.113 221.131 450.722 201.533 451.497 202.308C451.94 202.751 436.715 220.024 437.158 220.467C437.767 221.076 452.604 203.637 453.324 204.301C453.601 204.578 442.03 218.917 442.417 219.249C442.971 219.802 453.434 207.124 453.988 207.678C454.265 207.955 446.459 218.64 446.736 218.861C447.012 219.138 453.158 211.609 453.545 212.052C453.656 212.162 451.552 217.699 451.663 217.809C451.94 218.086 453.601 215.318 453.877 215.595" stroke="#7A8FCC" stroke-width="2" stroke-linecap="round" stroke-linejoin="round"/>
<path d="M391.484 180.606C391.706 180.827 393.2 178.447 393.422 178.668C393.533 178.779 391.152 184.758 391.263 184.869C391.65 185.256 398.017 177.339 398.404 177.727C398.681 178.004 389.989 189.408 390.266 189.685C390.82 190.239 401.117 177.782 401.671 178.281C402.003 178.613 390.432 192.675 390.709 192.952C391.318 193.561 406.432 175.955 407.041 176.62C407.484 177.063 389.768 196.55 390.266 197.104C390.986 197.823 409.698 176.121 410.473 176.897C411.138 177.561 388.55 201.81 389.214 202.419C390.156 203.36 415.124 174.903 415.954 175.679C416.619 176.343 388.384 205.353 389.214 206.183C390.045 207.014 418.889 174.627 419.83 175.568C420.771 176.509 387.886 209.892 388.661 210.668C389.768 211.775 423.428 174.073 424.369 174.959C425.2 175.789 388.439 212.771 389.27 213.602C390.432 214.764 426.805 173.741 427.968 174.903C429.131 176.066 387.498 217.034 388.661 218.252C389.713 219.304 430.57 174.018 431.733 175.18C432.951 176.398 387.111 221.02 388.329 222.294C389.768 223.733 435.165 172.357 436.715 173.907C438.099 175.291 391.041 220.799 392.259 222.017C393.422 223.179 438.985 172.8 440.258 174.018C441.587 175.346 394.474 221.076 395.692 222.349C397.076 223.733 442.528 172.412 444.078 173.962C445.186 175.07 398.405 220.854 399.567 222.017C401.007 223.456 443.082 175.734 444.466 177.118C445.407 178.059 401.892 220.965 403.166 222.238C404.218 223.29 444.853 178.059 446.071 179.332C447.068 180.329 406.211 221.076 407.152 222.017C408.425 223.29 445.795 180.661 447.179 181.99C448.009 182.82 410.252 221.076 411.249 222.072C412.411 223.235 447.4 183.263 448.729 184.592C449.559 185.422 412.743 222.792 413.518 223.567C413.684 223.733 414.127 222.57 414.349 222.737" stroke="#7A8FCC" stroke-width="2" stroke-linecap="round" stroke-linejoin="round"/>
<path d="M440.646 104.538C440.867 104.759 440.646 104.15 440.867 104.317C440.923 104.372 441.255 107.417 441.31 107.472C441.532 107.694 443.635 104.759 443.857 104.925C443.968 105.036 442.528 110.24 442.639 110.351C442.971 110.683 446.348 106.033 446.625 106.365C446.736 106.476 444.3 112.344 444.41 112.399C444.798 112.787 449.947 106.088 450.334 106.476C450.556 106.697 444.521 116.164 444.687 116.386C445.075 116.773 452.936 107.251 453.379 107.694C453.601 107.915 445.739 118.434 446.016 118.711C446.514 119.209 457.088 106.697 457.531 107.195C457.919 107.583 446.846 121.147 447.179 121.479C447.677 121.977 459.746 107.638 460.355 108.303C460.798 108.746 446.459 125.686 446.846 126.074C447.4 126.628 460.798 110.905 461.407 111.514C461.794 111.901 449.559 126.406 449.947 126.794C450.334 127.181 460.742 115.168 461.13 115.61C461.351 115.832 454.265 125.908 454.542 126.129C454.929 126.517 458.971 120.87 459.358 121.313C459.524 121.479 456.424 127.624 456.59 127.79C456.812 128.012 459.081 124.801 459.303 125.077" stroke="#FF4D33" stroke-width="2" stroke-linecap="round" stroke-linejoin="round"/>
<path d="M410.75 102.656C410.916 102.822 411.47 101.548 411.636 101.77C411.858 101.991 405.989 111.126 406.211 111.348C406.598 111.735 413.463 103.265 413.851 103.708C414.183 104.04 402.833 118.046 403.221 118.379C403.775 118.932 417.117 103.099 417.781 103.818C418.39 104.427 399.346 125.077 399.844 125.631C400.564 126.351 421.601 102.102 422.487 102.988C423.041 103.541 397.796 130.005 398.404 130.669C399.124 131.389 424.314 102.6 425.421 103.652C426.362 104.593 394.751 136.759 395.692 137.7C396.578 138.586 428.854 102.047 430.127 103.265C430.958 104.095 392.204 143.126 393.2 144.122C394.197 145.119 431.179 104.261 432.12 105.202C433.227 106.31 389.934 149.215 391.097 150.433C392.425 151.762 430.958 107.694 432.397 109.133C433.615 110.351 387.277 155.195 388.605 156.523C390.1 158.018 432.674 110.24 433.781 111.348C435.276 112.842 385.118 161.45 386.446 162.779C387.83 164.163 432.12 113.839 433.726 115.5C434.944 116.718 382.46 167.706 383.9 169.146C385.616 170.862 433.504 117.105 434.722 118.323C435.94 119.541 383.844 170.585 385.062 171.748C386.612 173.298 434.833 119.209 436.217 120.593C437.656 122.032 386.612 171.139 387.941 172.468C389.048 173.575 434.833 122.254 436.494 123.915C437.601 125.022 391.54 170.142 392.702 171.36C394.086 172.744 436.715 124.413 438.155 125.908C439.262 127.015 395.249 170.475 396.19 171.416C397.685 172.91 437.047 128.233 438.21 129.396C439.096 130.281 399.733 169.921 400.73 170.917C401.892 172.08 437.546 132.164 438.542 133.105C439.317 133.88 404.605 168.924 405.546 169.866C406.82 171.139 438.819 134.489 439.871 135.541C440.535 136.205 408.48 169.478 409.2 170.198C410.363 171.36 440.591 136.704 441.642 137.755C442.473 138.586 413.906 167.928 414.736 168.703C415.567 169.533 442.418 139.361 443.248 140.191C443.802 140.745 418.722 167.596 419.442 168.26C420.273 169.09 443.303 142.959 444.023 143.679C444.632 144.288 422.653 167.762 423.096 168.205C423.871 168.98 443.746 145.894 444.577 146.724C444.964 147.112 425.975 167.983 426.418 168.426C427.138 169.146 444.964 148.662 445.573 149.271C446.071 149.769 430.016 167.817 430.515 168.371C431.234 169.09 446.736 151.098 447.289 151.596C447.566 151.873 435.387 166.433 435.774 166.821C436.272 167.319 448.065 153.534 448.563 154.032C448.895 154.364 438.764 167.264 439.04 167.54C439.428 167.928 448.286 157.354 448.729 157.852C448.895 158.018 444.3 166.156 444.466 166.378C444.853 166.765 450.002 160.232 450.279 160.565C450.39 160.675 449.282 165.658 449.393 165.769C449.67 166.101 450.722 163.886 450.999 164.163C451.054 164.219 452.715 166.488 452.77 166.544C452.936 166.71 453.49 165.492 453.656 165.658" stroke="#FF4D33" stroke-width="2" stroke-linecap="round" stroke-linejoin="round"/>
<path d="M383.18 108.137C383.346 108.303 384.066 106.863 384.287 107.029C384.343 107.085 385.118 109.742 385.173 109.797C385.505 110.13 389.602 104.759 389.934 105.036C390.1 105.202 385.837 112.51 385.948 112.621C386.391 113.064 396.079 101.493 396.578 101.991C396.91 102.323 386.28 115.61 386.612 115.943C387.221 116.552 401.671 99.5554 402.335 100.22C402.723 100.607 387.443 117.991 387.83 118.379C388.55 119.098 404.052 100.773 404.716 101.493C405.214 101.991 388.052 121.147 388.55 121.645C389.104 122.199 404.55 104.206 405.27 104.926C405.823 105.479 387.72 125.465 388.218 125.963C388.827 126.572 401.892 111.181 402.446 111.735C402.723 112.012 393.588 123.638 393.81 123.915C394.142 124.247 398.903 118.268 399.18 118.545" stroke="#FF4D33" stroke-width="2" stroke-linecap="round" stroke-linejoin="round"/>
<path d="M390.543 31.0722C390.709 31.2383 390.82 30.4078 391.041 30.5739C391.318 30.8507 384.453 40.8159 384.675 41.0374C385.173 41.5356 401.006 23.5983 401.56 24.1519C402.169 24.7609 382.626 45.7985 383.069 46.2414C383.899 47.0719 405.103 22.3249 406.044 23.2661C406.543 23.7643 381.242 50.449 381.906 51.058C382.848 51.9991 410.75 20.2765 411.747 21.2177C412.632 22.1035 380.799 54.5458 381.574 55.3209C382.848 56.5942 414.681 19.9997 415.788 21.107C416.84 22.1588 380.578 57.9783 381.63 59.0855C382.958 60.4142 418.722 19.7783 419.83 20.8855C420.715 21.7713 381.962 61.1339 382.848 62.0197C384.287 63.4591 421.823 20.3319 423.151 21.7159C424.148 22.7125 382.349 64.5664 383.235 65.4522C384.453 66.6701 426.141 20.2212 427.303 21.3838C428.411 22.491 381.962 67.9435 383.29 69.2722C384.896 70.8777 429.297 20.7194 430.57 21.9927C431.788 23.2107 382.958 70.5455 384.342 71.9296C385.782 73.369 432.065 21.0516 433.67 22.6017C434.667 23.5983 385.56 72.76 386.668 73.8119C388.218 75.362 434.501 22.9339 435.995 24.4841C437.269 25.7574 386.225 75.2513 387.609 76.6354C389.214 78.2409 437.213 23.5983 438.93 25.3145C440.369 26.7539 388.384 77.798 389.546 78.9052C391.097 80.4554 440.923 23.9304 442.75 25.702C444.023 26.9754 389.602 80.3446 390.709 81.4519C392.038 82.7806 442.417 26.4771 444.023 28.138C445.352 29.4667 392.536 81.618 393.643 82.7252C394.972 84.0539 445.352 27.9719 446.846 29.522C448.452 31.1275 394.141 83.7771 395.47 85.1612C397.02 86.7113 447.511 30.0756 449.061 31.5704C450.168 32.6777 396.91 84.7183 398.238 86.047C400.065 87.8739 449.559 31.5704 451.109 33.1759C452.659 34.7261 398.847 86.4899 400.397 88.04C402.224 89.867 452.493 33.0099 453.933 34.5046C455.317 35.8887 401.56 87.8185 403.11 89.3687C404.55 90.8081 455.317 34.0617 456.867 35.6119C458.417 37.162 404.273 89.3133 405.546 90.642C407.041 92.1368 457.144 36.4977 458.417 37.771C459.58 38.9336 406.155 91.0296 407.539 92.3583C408.757 93.5762 457.753 39.5426 459.026 40.8713C460.244 42.0893 409.588 91.251 410.861 92.5243C412.245 93.9084 459.469 41.5356 460.687 42.6983C461.905 43.9162 412.965 92.5243 414.017 93.6316C415.677 95.2925 461.241 43.3626 462.791 44.8574C464.175 46.2414 415.899 93.5209 417.061 94.6281C418.335 95.9014 462.957 45.7432 464.452 47.238C465.614 48.4006 419.442 93.687 420.549 94.7388C422.099 96.289 463.953 48.6774 465.282 50.0061C466.445 51.1687 422.487 94.462 423.76 95.7354C425.034 97.0087 465.337 51.9438 466.445 53.051C467.552 54.1583 426.861 94.462 428.023 95.6246C429.186 96.7872 467.386 54.0475 468.493 55.1548C469.324 55.9852 431.4 94.1299 432.563 95.2371C433.781 96.4551 467.22 58.1443 468.438 59.3623C469.213 60.1374 435.885 93.9084 436.715 94.7388C437.878 95.9014 468.493 60.6356 469.656 61.7983C470.541 62.6841 440.923 93.2441 441.642 93.9638C442.639 94.9603 468.327 65.6736 469.157 66.4487C469.766 67.0577 446.403 92.2475 447.012 92.8565C447.732 93.5762 468.382 69.7151 469.268 70.6009C469.711 71.0438 451.275 91.5278 451.774 92.0815C452.438 92.7458 467.884 74.753 468.493 75.362C468.77 75.6388 457.808 89.2026 458.14 89.5348C458.528 89.9223 464.064 82.8359 464.452 83.2235" stroke="#CB7A47" stroke-width="2" stroke-linecap="round" stroke-linejoin="round"/>
<path d="M434.722 98.6696C435.386 98.6142 436.051 98.5035 436.715 98.3928L466.057 105.202L461.296 132.219L443.414 129.506L434.722 98.6696Z" stroke="black" stroke-width="7" stroke-linecap="round" stroke-linejoin="round"/>
<path d="M411.027 97.8945C408.813 97.4516 406.653 96.8426 404.55 96.1229L379.083 107.638L384.896 129.23L396.91 127.126L411.027 97.8945Z" stroke="black" stroke-width="7" stroke-linecap="round" stroke-linejoin="round"/>
<path d="M457.753 276.05L432.397 271.898L431.677 224.176" stroke="black" stroke-width="7" stroke-linecap="round" stroke-linejoin="round"/>
<path d="M400.564 226.612L398.404 269.795L375.983 277.268" stroke="black" stroke-width="7" stroke-linecap="round" stroke-linejoin="round"/>
<path d="M447.012 169.81L388.605 175.236L383.844 226.39L414.57 226.778L419.553 214.764L424.148 225.339L460.078 219.526L451.386 175.291L447.012 169.81Z" stroke="black" stroke-width="7" stroke-linecap="round" stroke-linejoin="round"/>
<path d="M381.353 116.053L361.865 128.621L384.675 150.212L386.336 156.136" stroke="black" stroke-width="7" stroke-linecap="round" stroke-linejoin="round"/>
<path d="M453.822 154.143L483.109 132.939L463.676 118.6" stroke="black" stroke-width="7" stroke-linecap="round" stroke-linejoin="round"/>
<path d="M404.993 173.741C408.702 190.903 401.781 197.602 386.391 199.595" stroke="black" stroke-width="7" stroke-linecap="round" stroke-linejoin="round"/>
<path d="M436.272 170.807C435.553 193.948 443.082 199.429 454.708 196.218" stroke="black" stroke-width="7" stroke-linecap="round" stroke-linejoin="round"/>
<path d="M434.722 98.6696C427.193 99.6107 418.888 99.5554 411.027 97.8945L396.965 127.181L379.083 176.177L459.192 168.703L443.414 129.451L434.722 98.6696Z" stroke="black" stroke-width="7" stroke-linecap="round" stroke-linejoin="round"/>
<path d="M400.674 119.375L394.695 101.438L390.1 103.541L396.965 127.181L400.674 119.375Z" fill="#804080" stroke="black" stroke-width="7"/>
<path d="M443.469 129.451L453.656 103.043L446.791 101.438L440.922 120.316L443.469 129.451Z" fill="#804080" stroke="black" stroke-width="7"/>
<path d="M440.868 120.372L400.674 119.43L396.965 127.237L443.47 129.506L440.868 120.372Z" fill="#804080" stroke="black" stroke-width="7"/>
<path d="M474.86 56.7603C474.638 56.7603 474.361 56.7603 474.14 56.8156C473.697 56.871 473.199 56.9264 472.756 57.0371C473.199 60.082 473.31 63.1269 472.977 66.1165C473.586 66.1719 474.195 66.1719 474.86 66.1719C478.68 65.8951 481.614 63.5698 481.448 60.9678C481.226 58.5319 478.348 56.7603 474.86 56.7603Z" fill="#CB7A47" stroke="black" stroke-width="7" stroke-linecap="round" stroke-linejoin="round"/>
<path d="M377.588 54.1582C376.924 54.1582 376.259 54.2136 375.54 54.3797C371.83 55.1548 369.173 57.8675 369.616 60.4695C370.059 63.0716 373.491 64.5664 377.2 63.7913C377.367 63.7359 377.533 63.7359 377.699 63.6806C377.367 60.5803 377.422 57.3693 377.92 54.2136C377.865 54.1582 377.754 54.1582 377.588 54.1582Z" fill="#CB7A47" stroke="black" stroke-width="7" stroke-linecap="round" stroke-linejoin="round"/>
<path d="M385.339 82.5591C402.778 106.531 445.462 100.386 458.196 90.8635C474.694 78.5177 477.24 59.307 467.552 42.2554C459.967 28.8577 446.016 19.3354 428.743 17.5638C409.421 15.5154 393.09 24.1519 383.678 39.3765C374.322 54.3797 376.204 69.9919 385.339 82.5591Z" stroke="black" stroke-width="7" stroke-linecap="round" stroke-linejoin="round"/>
<path d="M469.6 157.907L454.044 154.143L465.005 165.049" stroke="black" stroke-width="7" stroke-linecap="round" stroke-linejoin="round"/>
<path d="M384.675 150.212L373.99 156.966M377.201 161.45L384.675 150.212L377.201 161.45Z" stroke="black" stroke-width="7" stroke-linecap="round" stroke-linejoin="round"/>
<path d="M398.072 24.4841L394.529 12.249" stroke="black" stroke-width="7" stroke-linecap="round" stroke-linejoin="round"/>
<path d="M405.657 20.5533L404.384 10.1452" stroke="black" stroke-width="7" stroke-linecap="round" stroke-linejoin="round"/>
<path d="M415.29 17.8959L415.069 4" stroke="black" stroke-width="7" stroke-linecap="round" stroke-linejoin="round"/>
<path d="M424.48 17.287L424.702 5.88233" stroke="black" stroke-width="7" stroke-linecap="round" stroke-linejoin="round"/>
<path d="M434.778 18.5049L436.217 6.65738" stroke="black" stroke-width="7" stroke-linecap="round" stroke-linejoin="round"/>
<path d="M442.639 20.8855L446.791 10.5327" stroke="black" stroke-width="7" stroke-linecap="round" stroke-linejoin="round"/>
<path d="M449.836 24.3733L452.106 12.7472" stroke="black" stroke-width="7" stroke-linecap="round" stroke-linejoin="round"/>
<path d="M455.483 28.2487L458.583 19.5014" stroke="black" stroke-width="7" stroke-linecap="round" stroke-linejoin="round"/>
<path d="M426.03 46.2968C426.03 48.1791 424.868 49.7293 423.428 49.7293C421.989 49.7293 420.826 48.1791 420.826 46.2968C420.826 44.4145 421.989 42.8643 423.428 42.8643C424.868 42.8643 426.03 44.4145 426.03 46.2968Z" fill="black" stroke="black" stroke-width="7"/>
<path d="M436.936 46.629C436.936 48.5113 435.774 50.0615 434.334 50.0615C432.895 50.0615 431.732 48.5113 431.732 46.629C431.732 44.7467 432.895 43.1965 434.334 43.1965C435.774 43.1965 436.936 44.7467 436.936 46.629Z" fill="black" stroke="black" stroke-width="7"/>
<path d="M399.014 53.4939C404.771 86.6006 457.642 87.7078 459.248 58.698" stroke="black" stroke-width="7" stroke-linecap="round" stroke-linejoin="round"/>
<path d="M248.583 432.501C248.843 432.761 250.663 429.706 250.988 430.096C251.118 430.226 248.778 436.726 248.908 436.921C249.298 437.311 255.733 429.316 256.123 429.706C256.318 429.901 250.273 439.781 250.403 439.911C250.793 440.302 258.268 431.331 258.593 431.721C258.918 432.046 249.428 444.917 249.623 445.112C250.208 445.697 261.714 432.111 262.169 432.566C262.494 432.891 251.248 447.387 251.508 447.647C252.093 448.232 265.679 432.176 266.329 432.826C266.654 433.151 251.053 451.677 251.508 452.132C252.093 452.717 269.839 432.566 270.424 433.216C270.879 433.671 251.573 455.642 252.158 456.162C252.808 456.812 272.569 434.256 273.349 434.971C273.934 435.556 253.978 458.177 254.498 458.697C255.343 459.542 272.829 438.676 273.674 439.521C274.064 439.912 259.114 457.917 259.504 458.242C260.024 458.762 272.959 443.617 273.544 444.202C273.869 444.527 264.184 457.592 264.444 457.787C264.964 458.307 272.959 448.557 273.284 448.947C273.479 449.142 267.759 458.437 267.889 458.567C268.214 458.892 273.739 452.002 274.129 452.327C274.194 452.392 273.089 457.462 273.154 457.527C273.414 457.787 273.024 457.137 273.284 457.397" stroke="#804C80" stroke-width="2" stroke-linecap="round" stroke-linejoin="round"/>
<path d="M218.292 426.131C218.617 426.456 219.397 424.311 219.722 424.701C219.852 424.831 216.212 432.176 216.407 432.371C216.797 432.761 223.622 424.376 224.012 424.766C224.337 425.091 213.807 438.936 214.132 439.326C214.652 439.847 228.172 424.246 228.692 424.766C229.147 425.221 212.832 443.942 213.352 444.462C214.002 445.112 230.513 425.936 231.163 426.651C231.748 427.236 212.832 448.947 213.352 449.467C214.197 450.312 235.778 425.611 236.493 426.326C236.948 426.781 215.952 450.182 216.537 450.767C217.447 451.677 239.483 425.871 240.458 426.846C241.108 427.496 219.982 450.377 220.502 450.962C221.412 451.872 242.798 427.106 243.578 427.886C244.228 428.536 223.037 451.612 223.492 452.132C224.142 452.782 245.853 428.341 246.568 429.056C247.153 429.641 228.627 451.027 229.017 451.417C229.797 452.197 249.558 429.251 250.338 430.096C250.793 430.551 231.683 452.847 232.138 453.237C232.528 453.627 236.233 448.622 236.493 448.882" stroke="#804C80" stroke-width="2" stroke-linecap="round" stroke-linejoin="round"/>
<path d="M252.613 339.353C252.873 339.613 254.953 336.493 255.213 336.753C255.733 337.273 239.288 356.058 239.743 356.513C240.458 357.228 256.514 338.118 257.359 338.898C258.204 339.743 228.952 369.969 229.733 370.749C230.708 371.724 259.764 338.573 260.804 339.678C261.974 340.848 215.952 386.805 217.317 388.17C218.487 389.34 262.624 340.393 263.859 341.628C265.094 342.863 205.032 401.365 206.722 403.055C208.672 405.005 266.394 340.523 267.824 341.953C269.319 343.448 203.082 407.865 204.967 409.75C206.462 411.245 269.449 341.303 271.464 343.253C273.219 345.008 206.072 409.945 207.632 411.505C209.777 413.65 273.284 341.888 275.299 343.838C277.054 345.593 210.427 409.945 212.052 411.57C213.872 413.391 277.314 342.863 279.069 344.553C281.019 346.503 213.742 410.855 215.562 412.675C217.772 414.886 279.589 344.553 281.604 346.633C283.229 348.258 217.577 411.635 219.462 413.521C221.022 415.081 280.824 348.323 282.774 350.208C284.595 352.028 222.322 412.675 223.817 414.171C225.507 415.861 281.409 353.263 283.099 354.888C284.53 356.318 226.742 413.52 228.042 414.756C229.668 416.381 282.579 356.578 284.4 358.399C285.895 359.894 231.488 413.13 232.983 414.561C234.803 416.381 283.034 360.804 284.92 362.624C286.22 363.924 235.063 414.691 236.103 415.731C237.403 417.031 285.115 363.469 286.74 365.094C288.04 366.394 237.858 415.406 239.223 416.771C240.913 418.461 286.22 366.589 287.845 368.149C289.145 369.449 241.498 416.771 242.733 418.006C244.228 419.501 286.09 371.984 287.455 373.284C288.69 374.519 247.088 415.926 248.193 416.966C249.428 418.201 288.495 374.129 289.795 375.364C290.77 376.339 250.013 418.201 250.988 419.111C251.963 420.086 289.47 378.094 290.705 379.394C291.81 380.499 253.913 418.396 254.888 419.371C255.863 420.346 289.925 382.319 290.9 383.359C291.875 384.334 257.424 419.306 258.269 420.151C259.179 421.061 290.38 386.09 291.355 387.065C292.265 387.975 260.869 420.086 261.779 420.996C262.884 422.101 291.29 389.47 292.265 390.51C292.98 391.225 264.704 421.581 265.419 422.296C266.264 423.141 293.175 392.785 294.02 393.695C294.54 394.215 269.774 421.321 270.489 422.036C271.269 422.816 294.085 396.685 294.995 397.53C295.645 398.18 273.869 421.971 274.519 422.621C275.364 423.466 295.255 400.715 295.84 401.3C296.36 401.82 277.639 422.751 278.094 423.206C278.679 423.791 294.345 405.46 295.125 406.175C295.45 406.5 281.994 423.076 282.449 423.531C283.164 424.246 295.515 409.295 296.1 409.88C296.425 410.205 284.595 425.416 284.985 425.806C285.57 426.391 296.62 413.066 297.14 413.651C297.4 413.911 289.47 425.091 289.73 425.286C290.25 425.806 297.53 416.511 298.05 416.966C298.245 417.161 292.33 426.456 292.525 426.651C292.85 426.976 299.415 418.851 299.87 419.306C300 419.436 296.88 426.911 297.01 427.041C297.335 427.366 300.39 422.946 300.78 423.271C300.845 423.336 300.26 427.951 300.325 428.016C300.52 428.211 300.52 427.431 300.715 427.626" stroke="#A4CC52" stroke-width="2" stroke-linecap="round" stroke-linejoin="round"/>
<path d="M266.784 404.94C266.979 405.135 266.784 404.55 266.979 404.745C267.044 404.81 269.319 406.89 269.319 406.89C269.579 407.15 271.334 404.16 271.724 404.485C271.854 404.615 270.164 410.335 270.294 410.465C270.619 410.79 277.314 402.73 277.639 403.12C277.769 403.25 272.504 412.09 272.699 412.22C273.089 412.61 278.289 405.85 278.679 406.24C278.874 406.435 274.064 414.691 274.194 414.886C274.519 415.211 278.094 410.4 278.419 410.66" stroke="#804C80" stroke-width="2" stroke-linecap="round" stroke-linejoin="round"/>
<path d="M292.33 347.608C292.59 347.868 293.565 345.983 293.76 346.178C293.825 346.243 294.02 350.143 294.085 350.208C294.41 350.533 297.855 345.788 298.18 346.113C298.31 346.243 294.475 353.653 294.605 353.848C295.06 354.303 302.405 345.268 302.795 345.658C302.99 345.853 295.19 356.968 295.45 357.228C296.035 357.813 306.435 345.203 306.955 345.723C307.345 346.113 296.1 360.349 296.425 360.674C296.88 361.129 308.58 347.413 309.1 347.998C309.36 348.258 297.79 362.884 298.18 363.274C298.7 363.794 309.165 351.118 309.75 351.703C310.075 352.028 297.92 367.759 298.245 368.019C298.83 368.604 311.635 353.393 312.22 354.043C312.545 354.368 301.495 368.344 301.885 368.669C302.47 369.254 313.065 356.643 313.52 357.033C313.715 357.228 306.565 368.019 306.825 368.214C307.28 368.669 314.365 359.634 314.885 360.154C315.08 360.349 310.855 368.539 311.05 368.734C311.44 369.124 317.095 361.974 317.486 362.299C317.551 362.364 315.86 367.954 315.99 368.019C316.25 368.279 317.42 366.069 317.681 366.329" stroke="#A4CC52" stroke-width="2" stroke-linecap="round" stroke-linejoin="round"/>
<path d="M220.957 342.083C221.282 342.408 224.077 338.443 224.337 338.703C224.467 338.833 221.022 346.568 221.152 346.698C221.672 347.218 229.862 337.078 230.317 337.533C230.577 337.793 223.492 348.973 223.687 349.168C224.207 349.688 235.128 336.688 235.648 337.208C236.038 337.598 224.532 352.353 224.857 352.613C225.442 353.198 237.208 339.093 237.793 339.678C238.053 339.938 228.757 353.068 229.017 353.328C229.537 353.848 241.758 339.613 242.278 340.068C242.603 340.393 232.008 353.848 232.398 354.238C232.853 354.693 245.463 340.003 246.048 340.588C246.438 340.978 235.193 355.798 235.518 356.123C235.973 356.578 244.553 346.048 245.073 346.568" stroke="#A4CC52" stroke-width="2" stroke-linecap="round" stroke-linejoin="round"/>
<path d="M249.818 258.49C250.013 258.685 250.598 257.255 250.793 257.515C251.118 257.84 241.368 270.645 241.693 270.97C242.473 271.75 260.608 250.82 261.259 251.405C261.714 251.86 240.653 275.195 241.303 275.846C242.148 276.691 266.199 249.39 266.979 250.17C267.759 250.95 239.353 280.786 240.198 281.631C241.368 282.801 272.829 246.984 273.869 247.959C274.909 249 237.988 285.791 239.093 286.896C240.068 287.871 276.274 247.569 277.314 248.675C278.224 249.585 239.223 289.561 240.068 290.406C241.433 291.771 279.719 247.699 281.214 249.26C282.319 250.365 238.703 293.591 240.003 294.891C241.238 296.126 285.374 247.049 286.609 248.285C287.714 249.39 239.938 296.906 241.368 298.271C242.863 299.766 288.754 248.285 290.055 249.585C291.225 250.755 240.328 301.261 241.563 302.496C242.798 303.732 291.745 249.39 293.175 250.885C294.215 251.925 242.018 304.707 243.188 305.877C244.618 307.307 295.645 249.845 297.4 251.665C298.83 253.095 242.928 308.217 244.293 309.582C246.048 311.337 299.35 251.405 300.91 252.965C302.47 254.525 244.163 311.727 245.593 313.157C247.283 314.847 301.495 254.135 303.055 255.695C304.29 256.93 248.063 312.897 249.493 314.327C250.923 315.757 305.005 254.98 306.955 256.865C308.32 258.23 248.843 315.952 250.533 317.707C252.093 319.267 307.15 257.125 309.1 259.14C310.27 260.31 250.728 319.202 252.353 320.827C253.913 322.387 311.375 257.905 313.325 259.855C315.015 261.545 254.758 321.022 255.993 322.192C257.618 323.817 312.935 261.415 314.885 263.3C316.12 264.535 258.008 321.802 259.503 323.297C261.454 325.247 316.835 263.105 318.266 264.535C319.761 266.03 260.478 323.687 261.974 325.182C263.924 327.132 318.266 264.99 320.216 266.94C321.646 268.37 262.949 326.417 264.119 327.587C265.874 329.342 321.126 266.745 323.011 268.695C324.506 270.19 265.484 327.262 267.239 328.952C268.799 330.512 324.506 268.695 326.001 270.19C327.431 271.62 268.539 329.732 269.969 331.163C271.854 333.048 325.546 271.945 327.366 273.765C328.731 275.13 271.269 330.838 272.894 332.463C274.714 334.283 327.821 274.675 329.251 276.106C330.356 277.211 275.689 331.943 276.989 333.243C278.289 334.543 330.616 276.431 332.176 278.056C333.671 279.551 279.199 332.723 280.499 334.023C281.929 335.453 332.111 279.031 333.801 280.721C335.231 282.151 282.319 334.543 283.489 335.713C285.309 337.533 335.231 280.721 336.856 282.346C338.156 283.646 285.829 335.518 287.064 336.753C288.429 338.118 335.621 285.661 336.921 286.896C338.156 288.131 291.16 334.283 292.525 335.648C293.76 336.883 337.116 288.326 338.481 289.691C339.846 291.056 294.605 335.778 295.645 336.818C297.01 338.183 337.636 291.706 339.196 293.266C340.106 294.176 300.26 335.128 301.235 336.168C302.275 337.208 339.651 295.476 340.821 296.581C341.601 297.361 303.705 336.298 304.81 337.403C305.915 338.508 339.001 300.806 340.171 302.041C340.951 302.821 309.49 335.128 310.4 336.103C311.505 337.208 338.741 305.617 339.846 306.657C340.626 307.437 316.25 333.633 316.965 334.348C317.681 335.063 339.521 309.842 340.496 310.817C340.886 311.207 322.881 332.203 323.401 332.723C323.986 333.308 337.181 317.772 337.766 318.357" stroke="#FFCC99" stroke-width="2" stroke-linecap="round" stroke-linejoin="round"/>
<path d="M221.607 456.422L219.397 489.378L275.429 469.358L277.379 486.193" stroke="black" stroke-width="7" stroke-linecap="round" stroke-linejoin="round"/>
<path d="M262.429 462.467L264.054 498.284L319.631 476.573V499.909" stroke="black" stroke-width="7" stroke-linecap="round" stroke-linejoin="round"/>
<path d="M217.512 417.876L206.982 454.472L236.753 458.372L243.318 437.376L249.168 462.987L277.704 461.752L278.874 429.576L217.512 417.876Z" stroke="black" stroke-width="7" stroke-linecap="round" stroke-linejoin="round"/>
<path d="M252.548 338.183C242.538 331.683 231.683 331.683 219.852 338.183C212.312 352.938 217.577 360.154 235.713 359.894L252.548 338.183Z" stroke="black" stroke-width="7" stroke-linecap="round" stroke-linejoin="round"/>
<path d="M285.115 340.783C282.449 340.393 279.719 339.873 276.924 339.223C269.059 336.948 262.299 334.023 256.643 330.577L252.548 338.248L235.713 359.959L197.491 414.04L306.695 435.036C307.215 434.191 307.15 434.386 307.41 433.346L293.76 372.179L285.115 340.783Z" stroke="black" stroke-width="7" stroke-linecap="round" stroke-linejoin="round"/>
<path d="M240.328 263.885C235.843 263.885 232.203 266.095 232.203 268.76C232.203 271.035 234.803 272.985 238.313 273.505C240.198 270.255 242.148 267.2 244.228 264.47C243.058 264.08 241.758 263.885 240.328 263.885Z" fill="#FFCC99" stroke="black" stroke-width="7" stroke-linecap="round" stroke-linejoin="round"/>
<path d="M345.177 302.626C345.047 302.626 344.982 302.626 344.852 302.626C344.592 305.552 344.137 308.542 343.421 311.597C343.356 311.792 343.227 311.987 343.161 312.117C343.747 312.377 344.462 312.572 345.112 312.572C347.777 312.572 349.987 310.362 349.987 307.567C349.987 304.772 347.907 302.626 345.177 302.626Z" fill="#FFCC99" stroke="black" stroke-width="7" stroke-linecap="round" stroke-linejoin="round"/>
<path d="M341.536 279.941C345.502 289.756 346.152 300.286 343.487 311.597C331.201 337.403 309.035 346.568 276.924 339.158C241.888 328.887 228.757 307.372 237.663 274.546C251.183 250.17 270.099 240.159 294.475 244.579C313.39 250.755 329.056 262.52 341.536 279.941Z" stroke="black" stroke-width="7" stroke-linecap="round" stroke-linejoin="round"/>
<path d="M319.826 353.978L395.489 336.818" stroke="black" stroke-width="7" stroke-linecap="round" stroke-linejoin="round"/>
<path d="M393.409 325.117L385.608 339.158L385.478 356.188" stroke="black" stroke-width="7" stroke-linecap="round" stroke-linejoin="round"/>
<path d="M400.104 347.933L385.608 339.158L392.173 355.018" stroke="black" stroke-width="7" stroke-linecap="round" stroke-linejoin="round"/>
<path d="M227.587 334.868L205.487 280.461" stroke="black" stroke-width="7" stroke-linecap="round" stroke-linejoin="round"/>
<path d="M225.767 287.481L211.207 294.436L195.476 284.361" stroke="black" stroke-width="7" stroke-linecap="round" stroke-linejoin="round"/>
<path d="M194.306 295.281L211.272 294.306L215.042 278.966" stroke="black" stroke-width="7" stroke-linecap="round" stroke-linejoin="round"/>
<path d="M337.896 274.675C354.017 282.736 370.593 287.871 387.493 290.016" stroke="black" stroke-width="7" stroke-linecap="round" stroke-linejoin="round"/>
<path d="M343.357 284.881C358.697 291.641 373.128 296.451 386.518 299.246" stroke="black" stroke-width="7" stroke-linecap="round" stroke-linejoin="round"/>
<path d="M344.917 294.826C359.087 301.976 371.828 306.787 383.203 309.192" stroke="black" stroke-width="7" stroke-linecap="round" stroke-linejoin="round"/>
<path d="M349.532 310.037C362.077 315.692 374.428 320.567 386.453 324.727" stroke="black" stroke-width="7" stroke-linecap="round" stroke-linejoin="round"/>
<path d="M237.273 273.31C218.682 276.561 201.456 272.205 185.596 260.375" stroke="black" stroke-width="7" stroke-linecap="round" stroke-linejoin="round"/>
<path d="M246.763 261.285C220.762 261.22 200.936 252.25 187.286 234.439" stroke="black" stroke-width="7" stroke-linecap="round" stroke-linejoin="round"/>
<path d="M254.108 254.07C234.348 249.52 217.447 242.304 203.406 232.359" stroke="black" stroke-width="7" stroke-linecap="round" stroke-linejoin="round"/>
<path d="M219.852 231.189C239.483 239.964 255.668 244.904 268.344 246.074" stroke="black" stroke-width="7" stroke-linecap="round" stroke-linejoin="round"/>
<path d="M256.968 271.685C255.148 313.742 319.826 322.842 331.786 290.211" stroke="black" stroke-width="7" stroke-linecap="round" stroke-linejoin="round"/>
<path d="M309.36 267.265C306.305 261.025 302.99 260.18 299.35 264.86" stroke="black" stroke-width="7" stroke-linecap="round" stroke-linejoin="round"/>
<path d="M291.095 260.7C288.235 257.255 284.53 257.45 279.849 261.22" stroke="black" stroke-width="7" stroke-linecap="round" stroke-linejoin="round"/>
<path d="M277.379 243.994C285.244 236.259 290.51 229.629 293.305 224.104" stroke="black" stroke-width="7" stroke-linecap="round" stroke-linejoin="round"/>
<path d="M288.495 243.799C293.89 239.444 298.57 234.959 302.6 230.409" stroke="black" stroke-width="7" stroke-linecap="round" stroke-linejoin="round"/>
<path d="M298.765 246.139C301.56 241.979 303.705 238.079 305.33 234.439" stroke="black" stroke-width="7" stroke-linecap="round" stroke-linejoin="round"/>
<path d="M311.83 252.315C310.855 246.919 309.62 241.849 308.19 237.234" stroke="black" stroke-width="7" stroke-linecap="round" stroke-linejoin="round"/>
<path d="M322.946 259.985C320.346 256.475 319.111 252.77 319.306 249" stroke="black" stroke-width="7" stroke-linecap="round" stroke-linejoin="round"/>
<path d="M331.786 267.98C330.226 265.315 329.511 262.455 329.576 259.465" stroke="black" stroke-width="7" stroke-linecap="round" stroke-linejoin="round"/>
<path d="M270.359 420.606C289.99 406.89 285.309 392.135 271.789 402.08C262.689 392.98 255.148 401.105 270.359 420.606Z" stroke="black" stroke-width="7"/>
<path d="M285.179 340.783C294.15 342.148 302.34 342.018 309.555 340.393C318.461 349.363 322.361 356.838 321.256 362.884C318.851 371.529 309.62 374.649 293.695 372.114L285.179 340.783Z" stroke="black" stroke-width="7" stroke-linecap="round" stroke-linejoin="round"/>
<path d="M235.713 359.894L252.548 338.183" stroke="black" stroke-width="7" stroke-linecap="round" stroke-linejoin="round"/>
<path d="M160.875 132.844C161.137 133.106 161.608 131.744 161.818 131.901C161.87 131.953 161.766 135.411 161.87 135.463C162.132 135.725 164.07 132.687 164.385 132.949C164.542 133.106 161.399 139.182 161.556 139.287C161.818 139.549 167.37 132.896 167.685 133.158C167.894 133.368 163.023 141.644 163.127 141.749C163.599 142.22 171.194 132.949 171.561 133.315C171.77 133.525 164.28 144.001 164.489 144.211C164.961 144.682 173.604 134.206 174.075 134.625C174.285 134.834 164.594 146.934 164.908 147.196C165.328 147.615 176.223 134.73 176.799 135.306C177.113 135.62 165.38 149.763 165.799 150.182C166.323 150.706 179.261 135.515 179.889 136.092C180.256 136.458 166.061 152.644 166.532 153.063C166.951 153.482 177.166 141.382 177.689 141.906C177.951 142.168 166.951 155.525 167.266 155.839C167.632 156.206 175.018 147.353 175.385 147.72C175.594 147.93 168.208 158.092 168.366 158.249C168.68 158.563 173.656 152.277 174.023 152.592C174.18 152.749 171.351 158.72 171.456 158.825C171.666 159.034 172.608 157.201 172.87 157.411" stroke="#FF4D4D" stroke-width="2" stroke-linecap="round" stroke-linejoin="round"/>
<path d="M114.57 133.263C114.78 133.472 116.77 130.749 116.927 130.906C117.084 131.063 111.008 140.23 111.165 140.387C111.532 140.753 119.18 131.639 119.546 132.006C119.965 132.425 105.98 148.244 106.346 148.611C106.975 149.239 121.903 131.849 122.532 132.425C123.056 132.949 102.208 155.001 102.784 155.577C103.465 156.258 123.894 133.158 124.522 133.839C125.099 134.415 97.7034 162.806 98.3319 163.434C99.4319 164.534 126.46 133.158 127.56 134.206C128.556 135.201 93.7224 170.034 94.5081 170.82C95.5557 171.868 130.756 132.425 131.803 133.525C133.06 134.782 89.0605 178.206 90.0034 179.149C91.4176 180.563 134.58 131.953 135.889 133.263C137.408 134.782 84.0843 185.853 85.4462 187.268C87.1748 188.996 138.141 131.063 139.922 132.792C141.389 134.258 78.8462 194.182 80.47 195.806C81.9891 197.325 141.389 130.749 143.432 132.844C144.951 134.363 75.1272 200.834 76.9605 202.668C78.8986 204.606 144.899 130.277 147.151 132.477C148.88 134.206 70.7795 208.011 72.9272 210.158C74.97 212.201 148.827 129.596 151.184 131.901C153.018 133.734 72.4034 210.42 74.3415 212.358C76.8034 214.82 149.822 133.315 151.603 135.096C153.541 137.034 76.6462 210.315 78.27 211.939C80.2081 213.877 150.66 135.253 152.808 137.401C154.432 139.025 80.47 209.844 82.4605 211.834C84.8176 214.192 151.446 138.239 153.751 140.544C155.27 142.063 84.1367 210.263 85.8652 211.939C87.5414 213.615 151.446 142.377 153.437 144.368C155.27 146.201 87.07 211.101 88.7462 212.777C90.4224 214.453 152.441 145.153 154.38 147.144C156.108 148.872 92.2034 210.682 93.5129 211.992C95.0843 213.563 154.589 148.034 156.056 149.449C157.313 150.706 95.0319 210.787 96.551 212.306C98.2795 214.034 155.008 150.234 156.841 152.015C158.36 153.482 99.0129 210.263 100.584 211.834C102.522 213.772 155.48 153.377 157.26 155.158C158.465 156.363 101.894 210.996 103.465 212.568C104.984 214.087 156.16 157.253 157.47 158.563C158.832 159.925 107.08 210.263 108.127 211.311C109.594 212.777 156.632 160.187 157.941 161.496C159.146 162.701 109.646 210.263 111.113 211.73C112.37 212.987 158.203 161.863 159.618 163.225C160.822 164.43 112.737 211.677 113.784 212.672C115.251 214.139 159.094 165.215 160.194 166.263C161.399 167.468 116.56 211.468 117.66 212.568C119.18 214.087 160.665 167.52 161.66 168.568C162.708 169.615 120.541 211.153 121.641 212.201C122.637 213.196 160.613 171.03 161.713 172.13C162.865 173.282 124.208 211.363 125.046 212.201C126.041 213.196 161.818 173.072 163.022 174.225C163.756 174.958 128.346 211.206 129.08 211.939C130.127 212.987 162.97 175.901 164.07 176.949C165.013 177.892 131.856 210.892 132.799 211.834C133.637 212.672 163.756 178.887 164.751 179.882C165.38 180.511 136.989 210.211 137.67 210.944C138.718 211.992 164.175 182.658 165.065 183.549C165.694 184.177 140.551 210.63 141.284 211.363C142.227 212.306 165.641 185.487 166.427 186.22C167.056 186.849 144.375 210.944 144.846 211.415C145.527 212.096 167.37 187.53 168.051 188.211C168.627 188.787 147.989 210.944 148.513 211.468C149.194 212.149 167.684 191.092 168.313 191.668C168.732 192.087 151.813 210.787 152.232 211.206C152.808 211.782 167.894 194.287 168.522 194.915C168.837 195.23 154.694 211.834 155.008 212.149C155.584 212.725 168.68 197.22 169.308 197.849C169.622 198.163 159.513 210.734 159.775 210.996C160.299 211.52 170.146 199.577 170.67 200.101C170.932 200.363 163.546 210.63 163.756 210.892C164.175 211.311 171.665 202.196 172.032 202.615C172.241 202.825 166.375 211.468 166.584 211.677C166.951 212.044 172.818 204.711 173.184 205.077C173.289 205.182 170.827 210.996 170.932 211.101C171.194 211.363 173.289 208.272 173.499 208.534C173.551 208.587 173.865 211.992 173.97 212.044C174.127 212.201 175.018 210.682 175.175 210.839" stroke="#FF4D4D" stroke-width="2" stroke-linecap="round" stroke-linejoin="round"/>
<path d="M85.4464 138.239C85.6559 138.449 86.3369 136.93 86.5464 137.139C86.5988 137.192 85.8655 141.434 85.9702 141.487C86.3369 141.853 91.2607 135.411 91.6274 135.83C91.7845 135.987 87.2274 143.268 87.4369 143.477C87.8559 143.896 96.2893 133.787 96.7083 134.206C96.9178 134.415 88.7988 145.468 89.0083 145.677C89.4274 146.096 102.365 131.273 102.889 131.796C103.204 132.111 90.7369 147.092 91.0512 147.406C91.7845 148.139 108.494 128.653 109.123 129.334C109.594 129.806 91.7321 149.868 92.2036 150.287C93.0417 151.125 112.056 129.02 112.737 129.753C113.313 130.33 92.0988 152.801 92.7797 153.43C93.4607 154.111 108.861 136.301 109.385 136.825C109.856 137.296 94.3512 154.582 94.7702 155.001C95.1893 155.42 105.299 143.582 105.718 144.053C105.98 144.315 95.7655 157.306 96.1321 157.62C96.4464 157.934 100.427 152.696 100.742 153.011C100.951 153.22 95.975 160.815 96.1321 160.972C96.2893 161.13 97.1797 159.611 97.3369 159.768" stroke="#FF4D4D" stroke-width="2" stroke-linecap="round" stroke-linejoin="round"/>
<path d="M128.346 43.3773C128.556 43.5868 129.813 41.4916 130.023 41.7011" stroke="#FFCC99" stroke-width="2" stroke-linecap="round" stroke-linejoin="round"/>
<path d="M95.5559 62.6535C95.975 63.0725 102.313 55.1106 102.732 55.4773C102.994 55.7392 93.9845 67.4201 94.1941 67.6821C94.8226 68.3106 108.704 51.8106 109.385 52.4916C109.804 52.9106 91.7845 72.9201 92.256 73.3392C92.9893 74.0725 112.056 52.1249 112.737 52.8582C113.365 53.4868 91.5226 76.5344 91.9941 77.0059C92.8845 77.8963 115.199 52.3868 115.932 53.0678C116.561 53.6963 91.7845 79.6773 92.3084 80.2011C93.1988 81.0916 119.651 50.8678 120.646 51.863C121.275 52.4916 91.575 83.0297 92.256 83.6582C93.5131 84.9154 133.48 39.9725 134.737 41.1773C135.994 42.4344 90.5274 86.8011 91.7321 88.0059C93.3036 89.5773 136.518 40.6535 137.827 41.9106C139.137 43.2202 92.1512 89.3154 93.3036 90.4678C94.9798 92.1439 141.756 39.6059 142.961 40.8106C144.375 42.2249 91.7845 93.2439 92.9369 94.3963C94.2988 95.7582 144.427 39.344 146.208 41.1249C147.57 42.4868 93.4083 94.8678 94.6131 96.0725C96.0274 97.6439 147.204 40.1821 148.827 41.8059C150.085 43.063 93.1988 98.063 94.6655 99.4773C96.2893 101.101 149.404 41.5963 150.975 43.1678C152.599 44.7916 95.2941 100.053 96.4464 101.206C98.1226 102.934 153.332 41.6487 154.694 43.0106C156.056 44.3725 95.3988 103.196 96.9179 104.715C98.7512 106.549 154.799 43.1678 156.632 45.0011C157.889 46.2582 96.3941 105.449 98.2274 107.23C99.9036 108.906 155.689 47.1487 156.999 48.4582C158.361 49.8202 99.3798 107.649 100.585 108.853C102.156 110.425 157.313 49.1392 158.78 50.6582C160.456 52.3344 101.475 108.906 102.732 110.111C104.723 112.101 161.451 48.4582 162.918 49.9249C164.385 51.3916 102.889 111.053 104.146 112.311C105.613 113.777 163.756 48.9297 165.642 50.8154C167.213 52.3868 104.723 112.992 106.085 114.353C107.865 116.134 166.323 50.1868 168.261 52.1773C170.146 54.063 105.875 115.244 107.394 116.815C109.175 118.596 168.575 51.9678 170.408 53.8011C172.085 55.4773 108.913 115.453 110.589 117.182C112.161 118.753 170.618 53.0678 172.661 55.1106C174.284 56.7344 111.689 117.339 113.051 118.701C114.78 120.43 173.761 54.1154 175.699 56.0535C177.48 57.8344 113.889 118.806 115.146 120.115C116.98 121.949 175.018 57.1011 176.589 58.6725C178.004 60.0868 115.565 121.006 116.823 122.315C118.499 123.992 178.318 57.8868 179.785 59.3535C181.304 60.8725 118.446 121.268 120.123 122.944C121.485 124.306 179.156 61.1868 180.518 62.5487C181.984 64.0154 121.642 121.634 123.423 123.415C125.151 125.144 179.68 63.8059 181.356 65.4821C182.875 67.0011 124.104 123.52 125.518 124.882C127.246 126.611 181.565 65.4297 183.294 67.1059C184.708 68.5201 127.508 123.834 129.027 125.353C130.442 126.768 183.451 67.7868 185.023 69.3582C186.646 70.982 130.494 124.358 132.065 125.93C133.375 127.239 183.085 71.2963 184.918 73.0773C186.332 74.4916 134.37 125.249 135.47 126.349C136.832 127.711 184.813 74.5963 186.018 75.8011C187.432 77.2154 138.718 124.673 139.923 125.877C141.285 127.239 185.704 77.1106 187.223 78.5773C188.48 79.8344 141.075 125.511 142.437 126.873C143.642 128.077 186.908 80.1487 188.061 81.2487C189.108 82.2963 147.308 124.149 148.251 125.144C149.508 126.401 186.28 84.9154 187.38 86.0154C188.323 86.9582 150.608 124.673 151.708 125.72C152.546 126.558 186.384 88.8439 187.484 89.9439C188.323 90.782 155.951 122.996 156.894 123.939C157.68 124.725 186.699 91.9344 187.799 93.0344C188.375 93.6106 161.556 121.582 162.289 122.315C163.18 123.206 186.594 96.5963 187.327 97.2773C187.904 97.8535 168.313 119.015 168.785 119.487C169.465 120.168 184.446 102.411 185.127 103.144C185.337 103.353 177.742 113.777 178.004 114.039C178.265 114.301 179.418 112.101 179.68 112.363" stroke="#FFCC99" stroke-width="2" stroke-linecap="round" stroke-linejoin="round"/>
<path d="M176.746 18.1297C167.999 16.3487 161.975 32.2201 170.199 28.082C178.423 23.944 164.384 17.9201 158.623 23.3154C152.861 28.7106 158.78 40.6011 162.708 34.0535C166.637 27.5582 150.503 29.6011 149.718 38.1392" stroke="#FFB200" stroke-width="7" stroke-linecap="round" stroke-linejoin="round"/>
<path d="M139.346 37.6678C137.199 28.8678 122.427 28.4487 128.451 33.844C134.475 39.2392 137.461 26.4582 131.489 23.263C125.518 20.0678 111.008 29.1297 117.766 30.7535C124.523 32.3773 129.604 11.9487 107.185 26.6154" stroke="#FFB200" stroke-width="7" stroke-linecap="round" stroke-linejoin="round"/>
<path d="M116.77 126.768C115.775 126.401 114.727 126.034 113.784 125.615L78.6892 137.401L94.8225 166.892L116.77 126.768Z" stroke="black" stroke-width="7" stroke-linecap="round" stroke-linejoin="round"/>
<path d="M88.8512 72.2916C78.8465 67.5773 76.1751 79.8344 81.7798 76.9535C87.3846 74.0725 77.4322 69.6201 73.2941 73.863C69.156 78.1058 69.8893 92.2487 74.237 85.7535C78.5846 79.2582 61.5084 78.4725 65.2274 91.6201" stroke="#FFB200" stroke-width="7" stroke-linecap="round" stroke-linejoin="round"/>
<path d="M94.4035 61.1344C83.0368 54.3249 77.7987 68.2582 83.8749 66.7916C89.9511 65.2725 80.9416 58.2535 75.9654 59.7725C70.9892 61.2392 66.7987 71.4535 74.0797 69.4106C81.413 67.3678 73.1892 62.3916 66.7464 64.0154C60.3035 65.6392 56.7416 77.2154 64.7559 75.2249C72.8225 73.2344 57.6845 62.7059 54.1226 70.144" stroke="#FFB200" stroke-width="7" stroke-linecap="round" stroke-linejoin="round"/>
<path d="M90.1082 45.263C82.0415 38.2439 75.4415 48.4058 81.5701 49.8201C87.6987 51.182 83.6653 39.5011 78.532 38.6106C73.3987 37.7201 64.2844 45.4201 71.7225 46.8868C79.1606 48.3011 74.6034 38.2439 68.1606 36.8297C61.6653 35.4154 53.5463 45.682 61.6129 47.5154C69.6796 49.3487 61.4558 31.1725 50.4558 44.582" stroke="#FFB200" stroke-width="7" stroke-linecap="round" stroke-linejoin="round"/>
<path d="M205.504 78.1058C207.337 71.2963 193.718 70.0916 197.385 75.9058C201.051 81.6677 204.718 73.3916 200.789 68.2582C196.861 63.1249 189.108 65.4297 192.827 69.6201C196.547 73.8106 201.208 61.6582 185.494 58.6201" stroke="#FFB200" stroke-width="7" stroke-linecap="round" stroke-linejoin="round"/>
<path d="M115.775 215.553L106.87 290.877L86.4941 294.23" stroke="black" stroke-width="7" stroke-linecap="round" stroke-linejoin="round"/>
<path d="M142.908 215.292L137.618 289.725L160.246 291.191" stroke="black" stroke-width="7" stroke-linecap="round" stroke-linejoin="round"/>
<path d="M78.2179 157.777L64.0226 176.006L60.8274 186.953" stroke="black" stroke-width="7" stroke-linecap="round" stroke-linejoin="round"/>
<path d="M46.6321 170.087L64.0225 175.953L75.2844 189.468" stroke="black" stroke-width="7" stroke-linecap="round" stroke-linejoin="round"/>
<path d="M67.3748 190.044L64.0224 176.006L51.032 179.777" stroke="black" stroke-width="7" stroke-linecap="round" stroke-linejoin="round"/>
<path d="M193.403 148.087L220.065 154.582L233.161 155.944" stroke="black" stroke-width="7" stroke-linecap="round" stroke-linejoin="round"/>
<path d="M217.918 170.82L220.065 154.582L227.137 142.692" stroke="black" stroke-width="7" stroke-linecap="round" stroke-linejoin="round"/>
<path d="M232.584 146.672L220.065 154.582L226.927 164.482" stroke="black" stroke-width="7" stroke-linecap="round" stroke-linejoin="round"/>
<path d="M78.6367 137.349L94.7701 166.839C85.6558 173.439 81.2034 167.049 85.4463 159.296C78.6367 161.968 75.0225 155.158 78.2701 149.658C69.732 148.977 68.0558 140.649 78.6367 137.349Z" fill="white" stroke="black" stroke-width="7" stroke-linecap="round" stroke-linejoin="round"/>
<path d="M173.708 161.601L183.608 131.639C196.704 133.944 197.908 143.006 186.437 141.801C197.227 144.787 194.923 152.958 183.975 151.701C194.137 155.211 192.985 163.487 181.827 159.192C192.985 165.844 180.256 172.968 173.708 161.601Z" fill="white" stroke="black" stroke-width="7" stroke-linecap="round" stroke-linejoin="round"/>
<path d="M222.527 84.2868C222.527 76.2201 207.442 79.8344 212.942 82.8725C218.442 85.9106 221.584 80.2011 219.384 74.8058C217.132 69.3582 206.603 70.5106 208.332 74.282C210.113 78.0535 219.175 72.5535 216.189 66.5297C213.151 60.4535 202.465 59.9297 205.242 65.5344C208.018 71.1392 213.78 61.8678 210.48 56.5249C207.18 51.182 193.089 53.2249 200.527 57.1535C207.965 61.082 207.075 48.982 194.189 46.7297" stroke="#FFB200" stroke-width="7" stroke-linecap="round" stroke-linejoin="round"/>
<path d="M154.484 127.396C142.07 130.906 128.399 130.853 116.77 126.768L94.77 166.892L68.0558 216.077L180.203 214.872L164.018 163.12L154.484 127.396Z" stroke="black" stroke-width="7" stroke-linecap="round" stroke-linejoin="round"/>
<path d="M109.804 139.496C110.694 140.282 111.742 140.649 112.999 140.649C115.827 140.649 118.185 138.292 118.132 135.358C118.132 133.053 116.718 131.063 114.78 130.33L109.804 139.496Z" fill="#FEFEFE" stroke="black" stroke-width="7"/>
<path d="M86.4417 78.7868C83.2465 78.7868 80.6274 80.9344 80.6274 83.6058C80.6274 86.2773 83.2465 88.4249 86.4417 88.4249C87.0703 88.4249 87.6989 88.3201 88.2751 88.163C88.0655 85.0201 88.1179 81.982 88.4322 79.1011C87.8036 78.8916 87.1227 78.7868 86.4417 78.7868Z" fill="#FDD1A1" stroke="black" stroke-width="7" stroke-linecap="round" stroke-linejoin="round"/>
<path d="M192.984 78.4725C192.304 78.4725 191.675 78.5773 191.046 78.7344C191.204 80.3058 191.308 81.8773 191.361 83.5011C191.413 84.9677 191.361 86.4344 191.256 87.8487C191.832 88.0058 192.408 88.0582 192.984 88.0582C196.18 88.0582 198.799 85.9106 198.799 83.2392C198.799 80.6201 196.18 78.4725 192.984 78.4725Z" fill="#FDD1A1" stroke="black" stroke-width="7" stroke-linecap="round" stroke-linejoin="round"/>
<path d="M141.442 37.6154C135.68 37.6678 129.866 38.5058 124.313 40.0773L125.57 48.8773L111.532 48.563C110.851 50.5535 109.018 52.1249 106.661 52.3868C105.246 52.5439 103.937 52.1773 102.889 51.4963C91.3131 61.6582 84.9227 77.2677 89.7941 97.5392C101.999 148.715 192.461 135.568 191.361 83.5011C191.046 69.3582 186.018 58.6725 178.37 51.182C177.689 51.3916 176.956 51.4963 176.17 51.4439C173.551 51.2344 171.508 49.2963 171.142 46.8868L159.408 46.5201L163.18 41.5439C156.423 38.8725 148.985 37.563 141.442 37.6154Z" stroke="black" stroke-width="7" stroke-linecap="round" stroke-linejoin="round"/>
<path d="M145.422 60.9249C145.422 62.7582 144.218 64.1725 142.751 64.1725C141.284 64.1725 140.08 62.7058 140.08 60.9249C140.08 59.0915 141.284 57.6773 142.751 57.6773C144.218 57.6773 145.422 59.1439 145.422 60.9249Z" fill="black" stroke="black" stroke-width="7"/>
<path d="M131.908 62.3916C131.908 64.2249 130.704 65.6392 129.237 65.6392C127.77 65.6392 126.566 64.1725 126.566 62.3916C126.566 60.5582 127.77 59.1439 129.237 59.1439C130.704 59.0916 131.908 60.5582 131.908 62.3916Z" fill="black" stroke="black" stroke-width="7"/>
<path d="M168.313 72.3963C163.494 121.477 111.323 121.006 105.718 74.0201" stroke="black" stroke-width="7" stroke-linecap="round" stroke-linejoin="round"/>
<path d="M164.018 163.068L173.708 161.601L183.608 131.639L156.632 126.715C155.951 126.925 155.218 127.134 154.537 127.344L164.018 163.068Z" stroke="black" stroke-width="7" stroke-linecap="round" stroke-linejoin="round"/>
<path d="M170.146 32.4297L159.408 46.5201L171.089 46.8868C171.037 46.4678 170.985 45.9963 171.037 45.5773C171.194 43.6916 172.399 42.1201 174.023 41.282L170.146 32.4297Z" fill="#ED3237" stroke="black" stroke-width="7" stroke-linecap="round" stroke-linejoin="round"/>
<path d="M195.132 42.6963L182.142 45.2106C182.194 45.6297 182.246 46.1011 182.194 46.5725C182.037 48.1963 181.199 49.5582 179.942 50.4487L187.799 58.1487L195.132 42.6963Z" fill="#ED3237" stroke="black" stroke-width="7" stroke-linecap="round" stroke-linejoin="round"/>
<path d="M182.194 46.5725C181.932 49.5582 179.208 51.7059 176.118 51.444C173.027 51.182 170.775 48.5106 171.037 45.5773C171.299 42.5916 174.022 40.444 177.113 40.7059C180.203 40.9678 182.456 43.5868 182.194 46.5725Z" fill="#ED3237" stroke="black" stroke-width="7" stroke-linecap="round" stroke-linejoin="round"/>
<path d="M121.746 163.434C121.746 166.577 119.127 169.144 115.827 169.144C112.58 169.144 109.908 166.577 109.908 163.434C109.908 160.292 112.527 157.725 115.827 157.725C119.127 157.725 121.746 160.292 121.746 163.434Z" fill="#FEFEFE" stroke="black" stroke-width="7"/>
<path d="M147.308 144.001C147.308 147.458 144.689 150.287 141.389 150.287C138.089 150.287 135.47 147.458 135.47 144.001C135.47 140.544 138.089 137.715 141.389 137.715C144.689 137.715 147.308 140.492 147.308 144.001Z" fill="#FEFEFE" stroke="black" stroke-width="7"/>
<path d="M175.175 139.392C175.175 142.796 172.504 145.572 169.204 145.572C165.904 145.572 163.232 142.796 163.232 139.392C163.232 135.987 165.904 133.211 169.204 133.211C172.504 133.158 175.175 135.934 175.175 139.392Z" fill="#FEFEFE" stroke="black" stroke-width="7"/>
<path d="M98.9607 142.43C98.9607 145.363 96.7083 147.72 93.9321 147.72C91.1559 147.72 88.9036 145.363 88.9036 142.43C88.9036 139.496 91.1559 137.139 93.9321 137.139C96.7083 137.087 98.9607 139.496 98.9607 142.43Z" fill="#FEFEFE" stroke="black" stroke-width="7"/>
<path d="M161.818 170.034C161.818 173.334 159.199 176.006 155.899 176.006C152.651 176.006 149.98 173.334 149.98 170.034C149.98 166.734 152.599 164.063 155.899 164.063C159.199 164.011 161.818 166.682 161.818 170.034Z" fill="#FEFEFE" stroke="black" stroke-width="7"/>
<path d="M132.17 185.015C132.17 188.263 129.237 190.934 125.57 190.934C121.956 190.934 118.97 188.315 118.97 185.015C118.97 181.768 121.904 179.096 125.57 179.096C129.237 179.096 132.17 181.768 132.17 185.015Z" fill="#FEFEFE" stroke="black" stroke-width="7"/>
<path d="M169.675 190.515C169.675 193.553 167.37 196.015 164.489 196.015C161.608 196.015 159.304 193.553 159.304 190.515C159.304 187.477 161.608 185.015 164.489 185.015C167.37 185.015 169.675 187.477 169.675 190.515Z" fill="#FEFEFE" stroke="black" stroke-width="7"/>
<path d="M101.108 195.753C101.108 198.739 98.2273 201.149 94.613 201.149C90.9987 201.149 88.1702 198.739 88.1702 195.753C88.1702 192.768 91.0511 190.358 94.6654 190.358C98.2797 190.358 101.108 192.768 101.108 195.753Z" fill="#FEFEFE" stroke="black" stroke-width="7"/>
<path d="M149.875 208.796C153.489 208.744 156.475 211.625 156.527 215.134C151.604 215.134 148.042 215.134 143.38 215.239C143.275 211.677 146.208 208.796 149.875 208.796Z" fill="#FEFEFE" stroke="black" stroke-width="7"/>
<path d="M123.527 34.6297L110.484 43.5344C111.218 44.3201 111.689 45.3154 111.794 46.4678C111.846 47.2011 111.794 47.9344 111.584 48.6154L125.622 48.9297L123.527 34.6297Z" fill="#ED3237" stroke="black" stroke-width="7" stroke-linecap="round" stroke-linejoin="round"/>
<path d="M90.0558 40.182L91.8368 56.2106L101.213 49.8201C100.794 49.1916 100.532 48.4058 100.427 47.6201C100.322 46.782 100.48 45.9439 100.742 45.2106L90.0558 40.182Z" fill="#ED3237" stroke="black" stroke-width="7" stroke-linecap="round" stroke-linejoin="round"/>
<path d="M111.742 46.4678C112.056 49.4535 109.751 52.1249 106.661 52.4392C103.518 52.7535 100.742 50.6058 100.427 47.6725C100.113 44.6868 102.418 42.0154 105.508 41.7011C108.651 41.3344 111.427 43.482 111.742 46.4678Z" fill="#ED3237" stroke="black" stroke-width="7" stroke-linecap="round" stroke-linejoin="round"/>
</svg>
